<svg width="64" height="64" viewBox="0 0 64 64" fill="none" xmlns="http://www.w3.org/2000/svg">
<rect width="64" height="64" rx="32" fill="#FFF5F5"/>
<path d="M29.28 22.9062L39.8067 19.3979C40.0571 19.3145 40.3237 19.2918 40.5847 19.3316C40.8456 19.3714 41.0933 19.4726 41.3075 19.6268C41.5217 19.7811 41.6961 19.9841 41.8165 20.2189C41.9369 20.4538 41.9998 20.714 42 20.9779V43.0212C41.9998 43.2852 41.9369 43.5453 41.8165 43.7802C41.6961 44.0151 41.5217 44.218 41.3075 44.3723C41.0933 44.5266 40.8456 44.6278 40.5847 44.6676C40.3237 44.7074 40.0571 44.6846 39.8067 44.6012L29.2783 41.0929C28.6149 40.8715 28.0379 40.4471 27.629 39.8797C27.2201 39.3123 27.0001 38.6306 27 37.9312V26.0696C26.9997 25.3699 27.2196 24.6879 27.6285 24.1201C28.0374 23.5524 28.6146 23.1277 29.2783 22.9062" fill="#F04248" fill-opacity="0.2"/>
<path d="M22.8334 27.832L18.6667 31.9987M18.6667 31.9987L22.8334 36.1654M18.6667 31.9987H35.3334" stroke="#F04248" stroke-linecap="round"/>
</svg>
